<?xml version="1.0" encoding="UTF-8"?>
<svg id="outline" xmlns="http://www.w3.org/2000/svg" viewBox="0 0 960 330">
  <g>
    <path d="M118.1,99.6c40.69,0,73.68,32.99,73.68,73.68,0,21.13-8.9,40.19-23.15,53.63l-50.53,50.53-50.53-50.53c-14.25-13.44-23.15-32.49-23.15-53.63,0-40.69,32.99-73.68,73.68-73.68M118.1,87.48c-22.92,0-44.46,8.92-60.67,25.13-16.2,16.2-25.13,37.75-25.13,60.67,0,12.03,2.44,23.66,7.26,34.59,4.63,10.49,11.21,19.82,19.56,27.73l50.4,50.4,8.57,8.57,8.57-8.57,50.4-50.4c8.36-7.91,14.94-17.24,19.56-27.73,4.82-10.93,7.26-22.56,7.26-34.59,0-22.92-8.92-44.46-25.13-60.67-16.2-16.2-37.75-25.13-60.67-25.13h0Z"/>
    <path d="M170.19,47.55c40.69,0,73.68,32.99,73.68,73.68,0,21.13-8.9,40.19-23.15,53.63l-50.53,50.53v-30.47c-40.69,0-73.68-32.99-73.68-73.68s32.99-73.68,73.68-73.68M170.19,35.43c-22.92,0-44.46,8.92-60.67,25.13-16.2,16.2-25.13,37.75-25.13,60.67s8.92,44.46,25.13,60.67c13.31,13.31,30.23,21.71,48.55,24.29v48.45l20.68-20.68,50.41-50.41c8.35-7.91,14.94-17.24,19.56-27.73,4.82-10.93,7.26-22.56,7.26-34.59,0-22.92-8.92-44.46-25.13-60.67-16.2-16.2-37.75-25.13-60.67-25.13h0Z"/>
  </g>
  <g>
    <path d="M323.49,47.4h17.82v79.56h45.15v15.64h-62.97V47.4Z"/>
    <path d="M392.72,124.1c0-14.69,11.56-18.9,24.48-20.67l13.19-1.77c6.94-.95,8.98-2.18,8.98-5.85v-1.5c0-8.57-5.17-11.15-12.78-11.15s-13.74,2.58-13.74,10.34v1.5h-16.32v-3.13c0-13.74,9.38-21.35,30.46-21.35s29.51,7.48,29.51,23.12v48.96h-16.73v-12.65h-.68c-1.5,3.94-7.89,14.01-23.66,14.01-11.97,0-22.71-5.71-22.71-19.86ZM439.37,118.12v-8.98c-.95,1.63-4.35,2.45-8.3,2.99l-11.15,1.77c-7.48,1.09-9.79,4.49-9.79,8.7,0,5.44,3.67,8.7,11.02,8.7,11.15,0,18.22-7.48,18.22-13.19Z"/>
    <path d="M502.99,84.93c-9.52,0-16.46,5.71-16.46,17.27v40.39h-17.41v-70.72h17.41v14.55h.54c1.36-6.12,8.16-15.91,23.12-15.91,13.87,0,24.62,8.43,24.62,27.61v44.47h-17.41v-40.39c0-11.56-5.03-17.27-14.42-17.27Z"/>
    <path d="M545.5,147.22h15.37c.41,7.34,8.7,10.2,16.46,10.2,10.34,0,18.77-4.9,18.77-17v-10.06h-.27c-3.94,6.12-11.97,10.47-21.76,10.47-14.82,0-30.19-9.66-30.19-35.09s15.64-35.22,30.19-35.22c9.79,0,17.82,4.35,21.76,10.47h.27v-9.11h17.41v68.54c0,25.43-21.22,30.6-35.77,30.6-13.06,0-32.1-4.08-32.23-23.8ZM596.77,105.74c0-14.14-8.57-20.67-18.22-20.67s-18.36,6.53-18.36,20.67,8.7,20.67,18.36,20.67,18.22-6.66,18.22-20.67Z"/>
    <path d="M657.82,129.54c9.52,0,16.46-5.71,16.46-17.27v-40.39h17.41v70.72h-17.41v-14.55h-.54c-1.36,6.12-8.16,15.91-23.12,15.91-13.87,0-24.62-8.43-24.62-27.61v-44.47h17.41v40.39c0,11.56,5.03,17.27,14.42,17.27Z"/>
    <path d="M700.99,124.1c0-14.69,11.56-18.9,24.48-20.67l13.19-1.77c6.94-.95,8.98-2.18,8.98-5.85v-1.5c0-8.57-5.17-11.15-12.78-11.15s-13.74,2.58-13.74,10.34v1.5h-16.32v-3.13c0-13.74,9.38-21.35,30.46-21.35s29.51,7.48,29.51,23.12v48.96h-16.73v-12.65h-.68c-1.5,3.94-7.89,14.01-23.66,14.01-11.97,0-22.71-5.71-22.71-19.86ZM747.64,118.12v-8.98c-.95,1.63-4.35,2.45-8.3,2.99l-11.15,1.77c-7.48,1.09-9.79,4.49-9.79,8.7,0,5.44,3.67,8.7,11.02,8.7,11.15,0,18.22-7.48,18.22-13.19Z"/>
    <path d="M775.64,147.22h15.37c.41,7.34,8.7,10.2,16.46,10.2,10.34,0,18.77-4.9,18.77-17v-10.06h-.27c-3.94,6.12-11.97,10.47-21.76,10.47-14.82,0-30.19-9.66-30.19-35.09s15.64-35.22,30.19-35.22c9.79,0,17.82,4.35,21.76,10.47h.27v-9.11h17.41v68.54c0,25.43-21.22,30.6-35.77,30.6-13.06,0-32.1-4.08-32.23-23.8ZM826.91,105.74c0-14.14-8.57-20.67-18.22-20.67s-18.36,6.53-18.36,20.67,8.7,20.67,18.36,20.67,18.22-6.66,18.22-20.67Z"/>
    <path d="M853.1,107.1c0-26.11,16.18-36.58,34.68-36.58s33.18,10.06,33.18,35.9c0,2.45-.14,3.81-.41,5.3h-51c1.09,13.19,7.75,18.9,18.9,18.9,8.84,0,14.01-3.4,16.05-10.2h15.5c-3.81,16.05-16.18,23.53-31.96,23.53-18.36,0-34.95-10.47-34.95-36.86ZM904.51,101.12c-.41-9.93-5.58-17.27-17-17.27-10.2,0-16.59,5.71-17.82,17.27h34.82Z"/>
    <path d="M741.94,211.88h17.41v16.86,70.04h.82l19.86-70.04h18.5l19.86,70.04h.82l16.73-70.04h18.36l-25.02,95.2h-18.63l-21.35-72.62-21.35,72.62h-18.63l-24.89-95.2Z"/>
    <path d="M449.16,247.1c0-26.11,16.18-36.58,34.68-36.58s33.18,10.06,33.18,35.9c0,2.45-.14,3.81-.41,5.3h-51c1.09,13.19,7.75,18.9,18.9,18.9,8.84,0,14.01-3.4,16.05-10.2h15.5c-3.81,16.05-16.18,23.53-31.96,23.53-18.36,0-34.95-10.47-34.95-36.86ZM500.57,241.12c-.41-9.93-5.58-17.27-17-17.27-10.2,0-16.59,5.71-17.82,17.27h34.82Z"/>
    <path d="M522.34,264.1c0-14.69,11.56-18.9,24.48-20.67l13.19-1.77c6.94-.95,8.98-2.18,8.98-5.85v-1.5c0-8.57-5.17-11.15-12.78-11.15s-13.74,2.58-13.74,10.34v1.5h-16.32v-3.13c0-13.74,9.38-21.35,30.46-21.35s29.51,7.48,29.51,23.12v48.96h-16.73v-12.65h-.68c-1.5,3.94-7.89,14.01-23.66,14.01-11.97,0-22.71-5.71-22.71-19.86ZM568.99,258.12v-8.98c-.95,1.63-4.35,2.45-8.3,2.99l-11.15,1.77c-7.48,1.09-9.79,4.49-9.79,8.7,0,5.44,3.67,8.7,11.02,8.7,11.15,0,18.22-7.48,18.22-13.19Z"/>
    <path d="M590.01,211.88h17.68l19.04,54.13h.68l19.04-54.13h17.82l-26.25,70.72h-21.9l-26.11-70.72Z"/>
    <path d="M664.61,247.1c0-26.11,16.18-36.58,34.68-36.58s33.18,10.06,33.18,35.9c0,2.45-.14,3.81-.41,5.3h-51c1.09,13.19,7.75,18.9,18.9,18.9,8.84,0,14.01-3.4,16.05-10.2h15.5c-3.81,16.05-16.18,23.53-31.96,23.53-18.36,0-34.95-10.47-34.95-36.86ZM716.02,241.12c-.41-9.93-5.58-17.27-17-17.27-10.2,0-16.59,5.71-17.82,17.27h34.82Z"/>
    <path d="M741.94,211.88h17.41v16.86h.41c2.31-9.52,8.98-17.68,20.94-17.68,1.63,0,3.54.14,5.44.68v14.69c-2.04-.27-3.67-.41-5.44-.41-11.7,0-21.35,7.07-21.35,23.66v32.91h-17.41v-70.72Z"/>
  </g>
</svg>